<?xml version="1.0" standalone="no"?> <!DOCTYPE svg PUBLIC "-//W3C//DTD SVG 20010904//EN" "http://www.w3.org/TR/2001/REC-SVG-20010904/DTD/svg10.dtd"> <svg version="1.0" xmlns="http://www.w3.org/2000/svg" width="800pt" height="800pt" viewBox="515 425 800 800" preserveAspectRatio="xMidYMid meet"> <g transform="translate(0.000000,1542.000000) scale(0.100000,-0.100000)" fill="#6291fe" stroke="none"> <path d="M9083 10181 c-56 -32 -108 -62 -115 -68 -7 -6 -53 -32 -103 -58 -49 -26 -97 -54 -106 -61 -8 -8 -19 -14 -23 -14 -4 0 -26 -13 -49 -28 -23 -15 -63 -38 -89 -50 l-48 -23 0 -520 0 -519 635 0 635 0 0 520 c0 487 -1 521 -17 527 -10 4 -61 32 -113 63 -52 31 -142 83 -200 116 -57 32 -112 64 -121 69 -10 6 -30 17 -46 26 -15 8 -53 30 -83 47 l-55 31 -102 -58z m262 -916 l0 -180 -156 -3 c-129 -2 -158 0 -162 12 -9 22 -11 332 -3 345 5 8 54 11 164 9 l157 -3 0 -180z"/> <path d="M8153 8603 c2 -38 12 -81 21 -98 9 -16 16 -34 16 -40 0 -20 101 -124 152 -157 29 -19 79 -46 111 -59 58 -23 59 -24 54 -59 -2 -19 -10 -91 -16 -160 -7 -69 -16 -152 -22 -185 -5 -33 -14 -109 -19 -170 -9 -101 -20 -212 -49 -495 -11 -104 -26 -236 -56 -500 -8 -75 -15 -154 -15 -177 0 -23 -4 -64 -10 -90 -5 -26 -14 -102 -20 -168 -26 -284 -31 -335 -45 -433 -8 -56 -15 -126 -15 -155 0 -29 -7 -90 -15 -137 -8 -47 -15 -109 -15 -139 0 -30 -5 -82 -10 -115 -6 -34 -14 -108 -19 -166 -16 -171 -30 -310 -41 -385 -6 -38 -15 -122 -20 -185 -8 -91 -37 -379 -39 -387 -2 -4 -124 -58 -224 -99 -59 -24 -115 -48 -125 -53 -39 -20 -93 -41 -105 -41 -7 0 -24 -6 -39 -14 -15 -8 -40 -17 -57 -21 -17 -4 -33 -11 -36 -16 -4 -5 -16 -9 -28 -9 -12 0 -31 -7 -41 -15 -11 -8 -28 -15 -38 -15 -9 0 -32 -6 -50 -14 -101 -42 -353 -113 -487 -137 -30 -5 -58 -12 -62 -15 -11 -6 -160 -31 -309 -51 -64 -8 -226 -17 -365 -20 -214 -3 -271 -1 -400 17 -228 31 -445 78 -532 116 -17 8 -38 14 -47 14 -8 0 -32 7 -53 16 -21 9 -47 20 -58 24 -23 8 -84 35 -227 100 -27 12 -50 26 -54 31 -3 5 -12 9 -20 9 -8 0 -56 25 -106 55 -50 30 -95 55 -99 55 -4 0 -14 6 -21 13 -25 23 -77 57 -88 57 -21 0 -9 -19 57 -90 216 -233 442 -427 683 -586 121 -80 307 -179 430 -229 25 -10 64 -27 87 -37 23 -10 48 -18 56 -18 7 0 17 -3 21 -7 4 -5 29 -13 54 -20 26 -6 81 -20 123 -31 41 -11 109 -26 150 -32 41 -6 101 -16 134 -22 80 -14 581 -13 670 1 39 7 102 16 142 21 39 4 87 13 105 18 18 6 69 18 113 27 44 9 98 23 120 30 22 7 57 16 79 20 21 3 46 10 55 15 9 4 50 18 91 30 80 23 94 28 153 54 21 9 45 16 53 16 16 0 65 19 117 46 16 8 33 14 38 14 6 0 29 8 52 18 23 10 62 27 87 36 49 20 111 47 210 93 36 17 75 33 86 37 12 4 116 53 230 110 115 57 238 118 274 135 82 40 391 199 533 274 59 31 117 62 130 68 12 7 29 16 37 20 205 107 657 325 753 365 34 14 71 29 82 34 19 9 98 42 140 59 29 12 92 36 160 62 33 12 69 25 80 29 62 24 112 40 124 40 7 0 27 6 44 14 75 33 290 80 527 116 241 36 541 24 750 -30 41 -11 95 -25 120 -31 25 -6 49 -16 55 -20 5 -5 15 -9 23 -9 32 0 251 -110 376 -189 125 -79 171 -114 274 -208 45 -41 51 -29 25 50 -27 83 -22 72 -107 247 -85 174 -86 176 -185 305 -152 197 -316 336 -491 416 -25 11 -58 27 -75 34 -73 34 -213 72 -355 97 -94 16 -467 17 -565 1 -38 -6 -99 -16 -135 -22 -123 -20 -262 -49 -335 -71 -16 -5 -57 -17 -90 -26 -70 -19 -160 -49 -300 -99 -55 -19 -120 -43 -145 -51 -25 -9 -54 -23 -65 -30 -11 -8 -34 -14 -51 -14 -36 0 -35 -6 -60 240 -8 80 -21 208 -29 285 -8 77 -19 192 -25 255 -6 63 -14 138 -19 165 -6 28 -12 88 -15 135 -4 47 -11 112 -16 145 -5 33 -14 114 -20 180 -7 66 -18 185 -27 265 -8 80 -16 168 -19 195 -2 28 -11 106 -19 175 -14 120 -21 183 -45 440 -6 63 -15 137 -20 163 -6 26 -10 71 -10 100 0 29 -7 97 -14 151 -14 98 -10 136 15 136 6 0 30 9 54 20 160 73 262 202 281 358 l7 52 -1043 0 -1043 0 6 -67z m1195 -1145 c3 -210 23 -190 -183 -186 l-140 3 -3 170 c-1 93 0 175 3 182 3 11 39 13 162 11 l158 -3 3 -177z"/> <path d="M11585 4509 c-168 -9 -367 -39 -490 -74 -27 -7 -77 -21 -110 -30 -124 -33 -180 -50 -240 -75 -16 -7 -48 -18 -70 -25 -65 -21 -178 -64 -210 -80 -16 -8 -75 -35 -130 -60 -55 -25 -131 -62 -170 -82 -105 -54 -276 -144 -310 -164 -16 -10 -64 -37 -105 -61 -41 -23 -120 -71 -175 -107 -56 -37 -110 -71 -120 -78 -128 -78 -155 -97 -155 -104 0 -13 28 -11 58 5 15 7 52 24 82 36 30 12 68 28 83 36 16 8 39 14 52 14 13 0 27 5 30 10 3 6 14 10 23 10 9 0 31 7 47 16 17 9 44 20 60 24 29 8 78 25 120 41 49 19 203 68 235 74 19 4 41 11 50 16 8 4 35 13 60 19 25 6 117 29 205 50 88 22 180 45 205 51 25 7 72 16 105 20 33 4 87 13 120 19 146 26 180 30 350 41 183 12 500 6 585 -11 25 -5 79 -15 120 -23 99 -20 314 -93 363 -124 21 -13 46 -27 55 -31 88 -37 273 -206 311 -284 12 -27 27 -50 32 -54 5 -3 9 -12 9 -19 0 -8 12 -40 28 -72 26 -55 27 -65 27 -205 0 -82 3 -148 7 -148 4 0 51 44 105 98 151 150 215 258 247 420 13 65 13 84 0 165 -16 96 -56 194 -103 254 -136 171 -324 299 -561 382 -99 35 -230 69 -320 82 -36 6 -81 14 -100 19 -47 12 -268 17 -405 9z"/> </g> </svg>